<svg xmlns="http://www.w3.org/2000/svg" xmlns:xlink="http://www.w3.org/1999/xlink" version="1.1" x="0px" y="0px" viewBox="0 0 90 90" enable-background="new 0 0 90 90" xml:space="preserve"><path fill="#000000" d="M23.99,54.523c0.694-0.127,1.415-0.211,2.107-0.211c0.31,0,0.602,0.018,0.874,0.051  c0.427-3.016-1.689-3.828-1.793-3.867c-0.145-0.051-0.259-0.168-0.306-0.314c-0.145-0.447-0.384-0.742-0.731-0.9  c-0.228-0.102-0.48-0.141-0.729-0.141c-0.673,1.072-1.395,1.988-2.054,2.736l-7.05-7.093c-0.174-0.175-0.409-0.273-0.656-0.273  c-0.251-0.014-0.482,0.096-0.658,0.269l-9.657,9.6c-0.175,0.174-0.273,0.41-0.273,0.656c-0.001,0.246,0.096,0.482,0.27,0.658  l16.645,16.744c0.182,0.182,0.42,0.273,0.658,0.273c0.237,0,0.475-0.09,0.656-0.27l9.657-9.6c0.363-0.361,0.365-0.949,0.003-1.314  L23.99,54.523z M18.827,55.311c0.235,0.404,0.735,0.572,1.166,0.389c0.017-0.006,0.785-0.328,1.889-0.66l6.281,6.32l-12.264-1.512  l-1.438-12.273l5.609,5.645c-0.596,0.566-0.994,0.879-1.004,0.887C18.694,54.389,18.592,54.906,18.827,55.311z M20.64,70.467  L5.307,55.043l7.979-7.932l1.608,13.736l13.725,1.691L20.64,70.467z"></path><path fill="#000000" d="M86.82,55.635c-0.193-0.35-0.588-0.535-0.98-0.465c-0.079,0.016-8.041,1.455-14.721,1.455  c-0.53,0-1.044-0.008-1.528-0.027c-2.793-0.104-5.878-0.656-8.566-1.279c0,0-2.559-0.516-3.363-0.701c0,0,2.531,0.371,3.363-0.475  c0.831-0.848-0.224-2.295-0.678-2.77c2.999-0.078,5.263-0.777,6.733-2.082c1.161-1.031,1.164-1.953,0.962-2.543  c-0.413-1.207-2.047-2.052-5.135-2.658c3.553-1.167,8.117-3.105,9.415-5.664c0.472-0.931,0.265-1.623,0.009-2.041  c-0.672-1.095-2.44-1.583-5.732-1.583c-1.797,0-3.707,0.152-5.171,0.306c5.069-6.257,5.173-12.588,2.912-16.104  c-0.73-1.138-1.571-1.716-2.497-1.716c-2.202,0-3.817,3.202-5.862,7.258c-0.218,0.431-0.438,0.868-0.661,1.305  c-2.494,4.884-8.753,9.713-13.032,11.16c-2.043,0.689-3.186,1.569-3.597,2.769c-0.544,1.586,0.412,3.234,1.438,4.788  c0.623,0.944,0.971,1.75,1.164,2.37c-2.431-0.916-7.142-2.682-9.107-3.342c-0.601-0.2-1.203-0.304-1.79-0.304  c-2.384,0-4.544,1.654-6.424,4.91c0.196,0.037,0.391,0.09,0.579,0.176c0.546,0.248,0.944,0.68,1.188,1.283  c0.419,0.205,1.311,0.75,1.85,1.875c0.444,0.928,0.549,2.027,0.316,3.275c0.726,0.676,1.671,2.082,2.531,3.359  c2.822,4.195,7.089,10.537,14.497,10.807c0.259,0.008,0.516,0.012,0.771,0.012c8.926,0,14.777-5.547,16.463-7.373  c5.521,2.623,10.502,3.186,13.758,3.186c2.04,0,3.271-0.225,3.324-0.234c0.197-0.037,0.378-0.137,0.515-0.285l6.93-7.568  C86.963,56.418,87.014,55.984,86.82,55.635z M30.82,49.766c-0.702,0.252-1.478-0.111-1.73-0.814  c-0.254-0.703,0.109-1.479,0.813-1.732c0.703-0.252,1.478,0.111,1.731,0.814C31.888,48.736,31.523,49.512,30.82,49.766z   M55.82,49.25c0.165,0.418,0.158,0.842-0.022,1.229c-0.599,1.283-2.33,1.223-3.615,0.973c0.11,0.309,0.149,0.633,0.036,0.932  c-0.158,0.324-0.594,0.662-1.42,0.609c-0.837-0.051-1.518-1.08-1.538-1.111l0.002-0.016c1.392,0.295,1.816,0.154,1.91,0.109  c-0.01-0.197-0.33-0.711-0.67-1.063l-1.669-1.729L51.095,50c0.99,0.359,3.295,0.859,3.692,0.008  c0.034-0.076,0.063-0.178-0.004-0.348c-0.315-0.801-2.091-1.768-3.135-2.188l-3.257-1.314l3.505,0.24  c1.498,0.104,4.174-0.064,4.969-0.955c0.202-0.225,0.267-0.483,0.207-0.815c-0.197-1.085-1.804-1.482-3.446-1.583l0.002-0.006  c-0.947-0.065-2.116-0.046-3.222,0.003c-0.005,0.001-0.01,0.001-0.018,0.001c-1.699,0.077-3.241,0.226-3.603,0.262  c-0.004,0.001-0.007,0.002-0.01,0.002c-0.018,0.001-0.031,0.002-0.042,0.004c-0.009,0.001-0.014,0.001-0.018,0.001  c-0.009,0.001-0.013,0.001-0.013,0.001l3.488-1.239l0.005-0.001c3.143-0.995,7.849-3.575,7.795-5.202  c-0.016-0.451-0.191-0.619-0.321-0.705c-0.32-0.212-1.443-0.559-4.941,0.8c-0.905,0.352-2.393,1.058-3.719,1.711  c-1.222,0.559-1.971,0.688-3.059,1.002l-0.001-0.004c-1.461,0.424-2.763,0.752-2.763,0.752l2.474-1.311l0,0  c0.006-0.003,0.018-0.009,0.032-0.017l0.038-0.02h0.001c0.608-0.314,4.712-2.423,6.592-3.154c2.97-1.152,4.919-1.378,5.96-0.69  c0.359,0.237,0.793,0.706,0.821,1.6c0.065,1.946-3.002,3.855-5.565,5.076c2.027,0.103,4.289,0.646,4.628,2.518  c0.122,0.67-0.041,1.279-0.473,1.759c-0.768,0.859-2.293,1.184-3.604,1.299C54.834,47.965,55.554,48.574,55.82,49.25z"></path></svg>